<?xml version="1.0" encoding="UTF-8"?>
<svg id="Calque_2" data-name="Calque 2" xmlns="http://www.w3.org/2000/svg" viewBox="0 0 859.23 604.93">
  <defs>
    <style>
      .cls-2 {
        fill: #888888;
      }
    </style>
  </defs>
  <g id="Calque_1-2" data-name="Calque 1">
    <g>
      <g>
        <g>
          <path class="cls-2" d="M392.06,233.25h25.9v115.66h-25.9v-115.66Z"/>
          <path class="cls-2" d="M442.39,290.67c0-37.62,35.31-60.88,67.65-60.88,25.74,0,44.55,9.4,57.91,20.29l-11.55,17.32c-11.22-8.74-25.08-17.16-45.37-17.16-21.61,0-42.24,15.51-42.24,40.92s20.62,40.75,42.07,40.75c20.29,0,34.81-8.58,46.36-17.49l13.03,15.01c-7.59,8.74-29.04,22.44-59.56,22.44s-68.31-20.95-68.31-61.21Z"/>
          <path class="cls-2" d="M648.96,348.91h-26.73l-.17-44.71-47.35-70.95h27.72l35.31,52.63,33.49-52.63h25.57l-47.85,71.94v43.72Z"/>
        </g>
        <g>
          <path class="cls-2" d="M149.2,291.45c0-30.75,8.76-53.08,26.27-66.98,17.52-13.9,42.8-20.85,75.86-20.85,29.27,0,51.44,4.28,66.49,12.83,15.05,8.55,24.38,22.12,28,40.71h-14.31c-3.62-16.12-11.96-27.09-25.04-32.93-13.07-5.84-31.45-8.76-55.14-8.76-27.47,0-48.97,5.35-64.51,16.04-15.54,10.69-23.31,28.78-23.31,54.27v9.62c0,25.16,7.73,43.34,23.19,54.52,15.46,11.19,37.09,16.78,64.88,16.78,22.86,0,40.79-2.63,53.78-7.89,12.99-5.26,21.79-15.54,26.4-30.84h14.31c-4.77,17.6-14.55,30.47-29.36,38.61-14.8,8.14-36.6,12.21-65.38,12.21-33.06,0-58.34-6.91-75.86-20.72-17.52-13.82-26.27-36.02-26.27-66.61Z"/>
          <path class="cls-2" d="M247.85,342.94l-44.89-46.86h17.09l35.7,37.44,33.37-37.44h15.23l-42.33,47.1v33.14h-14.19v-33.37Z"/>
          <path class="cls-2" d="M247.9,208.34h14.07v58.96h-14.07v-58.96Z"/>
        </g>
        <g>
          <path class="cls-2" d="M387.63,382.22h5.45v40.6h-5.45v-40.6Z"/>
          <path class="cls-2" d="M453.98,406.34c0-5.97-2.96-8.29-8.58-8.29-3.94,0-8,2.44-11.77,4.99.12.7.17,1.45.17,2.32l.06,17.46h-4.99v-16.47c0-5.97-3.02-8.29-8.64-8.29-4,0-7.95,2.44-11.72,5.16v19.6h-4.99v-28.42h4.99v4.41c3.31-2.38,7.25-4.87,11.95-4.87s9.74,1.28,12.06,5.74c3.31-2.78,8.12-5.74,13.05-5.74,7.31,0,13.4,3.13,13.4,11.43v17.46h-4.99v-16.47Z"/>
          <path class="cls-2" d="M518.13,406.34c0-5.97-2.96-8.29-8.58-8.29-3.94,0-8,2.44-11.77,4.99.12.7.17,1.45.17,2.32l.06,17.46h-4.99v-16.47c0-5.97-3.02-8.29-8.64-8.29-4,0-7.95,2.44-11.72,5.16v19.6h-4.99v-28.42h4.99v4.41c3.31-2.38,7.25-4.87,11.95-4.87s9.74,1.28,12.06,5.74c3.31-2.78,8.12-5.74,13.05-5.74,7.31,0,13.4,3.13,13.4,11.43v17.46h-4.99v-16.47Z"/>
          <path class="cls-2" d="M547.25,423.28c-9.69,0-17.17-5.16-17.17-14.62s7.48-14.73,17.17-14.73,17.11,5.34,17.11,14.73-7.42,14.62-17.11,14.62ZM547.25,398.11c-7.54,0-12.01,4.76-12.01,10.5s4.47,10.38,12.01,10.38,12.01-4.64,12.01-10.38-4.41-10.5-12.01-10.5Z"/>
          <path class="cls-2" d="M586.63,423.28c-3.83,0-7.48-1.62-10.21-3.65v3.19h-4.87v-43.38h4.87v16.76c2.78-1.62,6.32-2.61,10.09-2.61,8.12,0,17.05,4.81,17.05,14.33s-8.64,15.37-16.94,15.37ZM586.28,397.76c-3.89,0-7.48,1.33-9.86,3.13v13.98c2.09,2.15,5.8,4.12,9.86,4.12,6.32,0,12.24-4.52,12.24-10.9s-5.92-10.32-12.24-10.32Z"/>
          <path class="cls-2" d="M615.16,387.55c-1.68,0-3.07-1.22-3.07-2.73s1.39-2.84,3.07-2.84,3.13,1.28,3.13,2.84-1.39,2.73-3.13,2.73ZM612.61,394.45h5.1v28.36h-5.1v-28.36Z"/>
          <path class="cls-2" d="M628.91,379.43h4.99v43.38h-4.99v-43.38Z"/>
          <path class="cls-2" d="M646.95,387.55c-1.68,0-3.07-1.22-3.07-2.73s1.39-2.84,3.07-2.84,3.13,1.28,3.13,2.84-1.39,2.73-3.13,2.73ZM644.39,394.45h5.1v28.36h-5.1v-28.36Z"/>
          <path class="cls-2" d="M666.38,416.49c2.32,1.8,5.74,2.78,8.99,2.78,1.97,0,4.18-.23,6.15-.64,2.26-.46,4.41-1.28,5.74-2.09l.81,3.89c-2.32,1.45-8.18,2.84-12.82,2.84s-9.51-1.33-12.82-4.18c-2.9-2.44-4.81-5.92-4.81-10.32,0-9.92,7.83-14.85,17.34-14.85,11.66,0,16.76,5.86,16.76,15.72h-28.88c0,2.96,1.16,5.05,3.54,6.84ZM674.96,397.7c-6.38,0-11.02,2.96-11.95,8.29h23.49c-.35-3.89-3.54-8.29-11.54-8.29Z"/>
          <path class="cls-2" d="M716.14,398.17c-4.29,0-7.77,2.67-11.43,5.8v18.85h-5.16v-28.42h5.16v4.87c3.25-2.73,7.13-5.34,11.72-5.34,2.03,0,3.25.29,4.06.64l-.64,4.58c-.75-.58-2.09-.99-3.71-.99Z"/>
        </g>
      </g>
    </g>
  </g>
</svg>